<svg width="252" height="44" version="1.1" viewBox="0 0 63 11" xml:space="preserve"
  xmlns="http://www.w3.org/2000/svg"
  xmlns:cc="http://creativecommons.org/ns#"
  xmlns:dc="http://purl.org/dc/elements/1.1/"
  xmlns:rdf="http://www.w3.org/1999/02/22-rdf-syntax-ns#">
  <title>pretty cool font, i rate it 9/9 pixels</title>
  <style>
    <![CDATA[
      path {
        fill: var(--c-fg);
      }
    ]]>
  </style>
  <g>
    <path d="m0 0v3h1v-1h2v-2zm4 0v3h1v-2h2v-1zm4 0v3h3v-1h-1v-1h1v-1zm4 0v1h1v2h1v-2h1v-1zm4 0v1h1v2h1v-2h1v-1zm4 0v1h1v-1zm1 1v2h1v-2zm1 0h1v-1h-1zm6-1v3h3v-1h-2v-1h2v-1zm4 0v3h3v-3zm4 0v3h3v-3zm4 0v3h3v-1h-2v-2zm8 0v3h1v-1h1v-1h1v-1zm4 0v3h3v-3zm4 0v3h1v-2h1v2h1v-3zm4 0v1h1v2h1v-2h1v-1zm-27 1h1v1h-1zm4 0h1v1h-1zm16 0h1v1h-1zm-53 3v1h1v1h-1v1h3v-1h-1v-1h1v-1zm8 0v3h1v-2h2v-1zm5 0v1h-1v2h1v-1h1v1h1v-2h-1v-1zm3 0v1h1v2h1v-2h1v-1zm4 0v3h3v-1h-1v-1h1v-1zm8 0v1h1v1h-1v1h3v-1h-1v-1h1v-1zm4 0v1h1v2h1v-2h1v-1zm-32 4v2h2v1h1v-3zm6 0v1h1v-1zm0 1h-1v1h1zm-1 1h-1v1h1zm3-2v2h2v1h1v-3zm8 0v3h1v-1h2v-2zm4 0v1h1v1h-1v1h3v-1h-1v-1h1v-1zm4 0v1h1v-1zm1 1v1h1v-1zm1 0h1v-1h-1zm0 1v1h1v-1zm-1 0h-1v1h1zm3-2v3h3v-1h-1v-1h1v-1zm4 0v3h3v-1h-2v-2z" stroke-width=".26458"/>
  </g>
</svg>
